<mxfile host="app.diagrams.net" modified="2022-09-07T02:28:33.907Z" agent="5.0 (Windows NT 10.0; Win64; x64) AppleWebKit/537.36 (KHTML, like Gecko) Chrome/105.0.0.0 Safari/537.36 Edg/105.0.1343.27" etag="r9t27Bz0x-6fHvCyzFWi" version="20.2.8" type="github">
  <diagram id="vm3Sj9c9gmoXGFSqlVKw" name="第 2 页">
    <mxGraphModel dx="1185" dy="628" grid="1" gridSize="10" guides="1" tooltips="1" connect="1" arrows="1" fold="1" page="1" pageScale="1" pageWidth="827" pageHeight="1169" math="0" shadow="0">
      <root>
        <mxCell id="0" />
        <mxCell id="1" parent="0" />
        <mxCell id="O3BbCS4CnLVl9yZ6NWeh-1" value="系统架构" style="swimlane;childLayout=stackLayout;resizeParent=1;resizeParentMax=0;horizontal=1;startSize=20;horizontalStack=0;fillColor=#0050ef;fontColor=#ffffff;strokeColor=#001DBC;textDirection=ltr;swimlaneFillColor=none;" vertex="1" parent="1">
          <mxGeometry x="100" y="80" width="580" height="700" as="geometry" />
        </mxCell>
        <mxCell id="O3BbCS4CnLVl9yZ6NWeh-2" value="客户业务平台" style="swimlane;startSize=20;horizontal=0;fillColor=#6a00ff;fontColor=#ffffff;strokeColor=#3700CC;" vertex="1" parent="O3BbCS4CnLVl9yZ6NWeh-1">
          <mxGeometry y="20" width="580" height="300" as="geometry" />
        </mxCell>
        <mxCell id="-DtHuRD3jHM6YNQx53oj-3" value="微信小程序（设备管理、人员管理、数据展示）" style="whiteSpace=wrap;html=1;glass=0;fillColor=#6a00ff;fontColor=#ffffff;strokeColor=#3700CC;rounded=1;container=1;" vertex="1" parent="O3BbCS4CnLVl9yZ6NWeh-2">
          <mxGeometry x="20" width="560" height="20" as="geometry" />
        </mxCell>
        <mxCell id="-DtHuRD3jHM6YNQx53oj-43" style="edgeStyle=orthogonalEdgeStyle;rounded=0;orthogonalLoop=1;jettySize=auto;html=1;entryX=0.5;entryY=0;entryDx=0;entryDy=0;fontSize=9;startArrow=oval;startFill=0;fillColor=#0050ef;strokeColor=#001DBC;" edge="1" parent="O3BbCS4CnLVl9yZ6NWeh-2" source="-DtHuRD3jHM6YNQx53oj-37" target="-DtHuRD3jHM6YNQx53oj-42">
          <mxGeometry relative="1" as="geometry" />
        </mxCell>
        <mxCell id="-DtHuRD3jHM6YNQx53oj-37" value="用户登录系统" style="rounded=1;whiteSpace=wrap;html=1;glass=0;fontSize=8;fillColor=#0050ef;fontColor=#ffffff;strokeColor=#001DBC;" vertex="1" parent="O3BbCS4CnLVl9yZ6NWeh-2">
          <mxGeometry x="180" y="50" width="90" height="20" as="geometry" />
        </mxCell>
        <mxCell id="-DtHuRD3jHM6YNQx53oj-38" value="业务数据查看" style="rounded=1;whiteSpace=wrap;html=1;glass=0;fontSize=8;fillColor=#0050ef;fontColor=#ffffff;strokeColor=#001DBC;" vertex="1" parent="O3BbCS4CnLVl9yZ6NWeh-2">
          <mxGeometry x="128.75" y="250" width="90" height="30" as="geometry" />
        </mxCell>
        <mxCell id="-DtHuRD3jHM6YNQx53oj-39" value="设备配网" style="rounded=1;whiteSpace=wrap;html=1;glass=0;fontSize=8;fillColor=#0050ef;fontColor=#ffffff;strokeColor=#001DBC;" vertex="1" parent="O3BbCS4CnLVl9yZ6NWeh-2">
          <mxGeometry x="370" y="100" width="90" height="20" as="geometry" />
        </mxCell>
        <mxCell id="-DtHuRD3jHM6YNQx53oj-40" value="删除设备" style="rounded=1;whiteSpace=wrap;html=1;glass=0;fontSize=8;fillColor=#0050ef;fontColor=#ffffff;strokeColor=#001DBC;" vertex="1" parent="O3BbCS4CnLVl9yZ6NWeh-2">
          <mxGeometry x="370" y="185" width="90" height="20" as="geometry" />
        </mxCell>
        <mxCell id="-DtHuRD3jHM6YNQx53oj-45" value="" style="edgeStyle=orthogonalEdgeStyle;rounded=0;orthogonalLoop=1;jettySize=auto;html=1;fontSize=9;startArrow=oval;startFill=0;fillColor=#0050ef;strokeColor=#001DBC;" edge="1" parent="O3BbCS4CnLVl9yZ6NWeh-2" source="-DtHuRD3jHM6YNQx53oj-42" target="-DtHuRD3jHM6YNQx53oj-44">
          <mxGeometry relative="1" as="geometry" />
        </mxCell>
        <mxCell id="-DtHuRD3jHM6YNQx53oj-42" value="场所、权限" style="rounded=1;whiteSpace=wrap;html=1;glass=0;fontSize=8;fillColor=#0050ef;fontColor=#ffffff;strokeColor=#001DBC;" vertex="1" parent="O3BbCS4CnLVl9yZ6NWeh-2">
          <mxGeometry x="130" y="120" width="90" height="20" as="geometry" />
        </mxCell>
        <mxCell id="-DtHuRD3jHM6YNQx53oj-47" style="edgeStyle=orthogonalEdgeStyle;rounded=0;orthogonalLoop=1;jettySize=auto;html=1;entryX=0.007;entryY=0.617;entryDx=0;entryDy=0;entryPerimeter=0;fontSize=9;startArrow=oval;startFill=0;fillColor=#0050ef;strokeColor=#001DBC;" edge="1" parent="O3BbCS4CnLVl9yZ6NWeh-2" source="-DtHuRD3jHM6YNQx53oj-44" target="-DtHuRD3jHM6YNQx53oj-39">
          <mxGeometry relative="1" as="geometry" />
        </mxCell>
        <mxCell id="-DtHuRD3jHM6YNQx53oj-48" style="edgeStyle=orthogonalEdgeStyle;rounded=0;orthogonalLoop=1;jettySize=auto;html=1;fontSize=9;startArrow=oval;startFill=0;fillColor=#0050ef;strokeColor=#001DBC;" edge="1" parent="O3BbCS4CnLVl9yZ6NWeh-2" source="-DtHuRD3jHM6YNQx53oj-44" target="-DtHuRD3jHM6YNQx53oj-40">
          <mxGeometry relative="1" as="geometry" />
        </mxCell>
        <mxCell id="-DtHuRD3jHM6YNQx53oj-66" style="edgeStyle=orthogonalEdgeStyle;rounded=0;orthogonalLoop=1;jettySize=auto;html=1;exitX=0.5;exitY=1;exitDx=0;exitDy=0;fontSize=9;startArrow=oval;startFill=0;fillColor=#0050ef;strokeColor=#001DBC;" edge="1" parent="O3BbCS4CnLVl9yZ6NWeh-2" source="-DtHuRD3jHM6YNQx53oj-44" target="-DtHuRD3jHM6YNQx53oj-38">
          <mxGeometry relative="1" as="geometry" />
        </mxCell>
        <mxCell id="-DtHuRD3jHM6YNQx53oj-74" style="edgeStyle=orthogonalEdgeStyle;rounded=0;orthogonalLoop=1;jettySize=auto;html=1;entryX=0;entryY=0.25;entryDx=0;entryDy=0;fontSize=9;startArrow=oval;startFill=0;fillColor=#0050ef;strokeColor=#001DBC;" edge="1" parent="O3BbCS4CnLVl9yZ6NWeh-2" source="-DtHuRD3jHM6YNQx53oj-44" target="-DtHuRD3jHM6YNQx53oj-61">
          <mxGeometry relative="1" as="geometry" />
        </mxCell>
        <mxCell id="-DtHuRD3jHM6YNQx53oj-44" value="设备管理" style="whiteSpace=wrap;html=1;fontSize=8;fillColor=#0050ef;strokeColor=#001DBC;fontColor=#ffffff;rounded=1;glass=0;" vertex="1" parent="O3BbCS4CnLVl9yZ6NWeh-2">
          <mxGeometry x="128.75" y="180" width="92.5" height="30" as="geometry" />
        </mxCell>
        <mxCell id="-DtHuRD3jHM6YNQx53oj-61" value="更改设备信息" style="rounded=1;whiteSpace=wrap;html=1;glass=0;fontSize=8;fillColor=#0050ef;fontColor=#ffffff;strokeColor=#001DBC;" vertex="1" parent="O3BbCS4CnLVl9yZ6NWeh-2">
          <mxGeometry x="370" y="140" width="90" height="20" as="geometry" />
        </mxCell>
        <mxCell id="O3BbCS4CnLVl9yZ6NWeh-3" value="内部平台" style="swimlane;startSize=20;horizontal=0;fillColor=#60a917;fontColor=#ffffff;strokeColor=#2D7600;" vertex="1" parent="O3BbCS4CnLVl9yZ6NWeh-1">
          <mxGeometry y="320" width="580" height="120" as="geometry" />
        </mxCell>
        <mxCell id="-DtHuRD3jHM6YNQx53oj-4" value="数据中台（数据处理、储存）" style="whiteSpace=wrap;html=1;glass=0;fillColor=#60a917;fontColor=#ffffff;strokeColor=#2D7600;rounded=0;container=1;" vertex="1" parent="O3BbCS4CnLVl9yZ6NWeh-3">
          <mxGeometry x="20" width="560" height="20" as="geometry" />
        </mxCell>
        <mxCell id="-DtHuRD3jHM6YNQx53oj-70" style="edgeStyle=orthogonalEdgeStyle;rounded=0;orthogonalLoop=1;jettySize=auto;html=1;fontSize=9;startArrow=oval;startFill=0;" edge="1" parent="O3BbCS4CnLVl9yZ6NWeh-3" source="-DtHuRD3jHM6YNQx53oj-30" target="-DtHuRD3jHM6YNQx53oj-31">
          <mxGeometry relative="1" as="geometry" />
        </mxCell>
        <mxCell id="-DtHuRD3jHM6YNQx53oj-30" value="&lt;font style=&quot;font-size: 11px;&quot;&gt;原始数据存储&lt;/font&gt;" style="shape=dataStorage;whiteSpace=wrap;html=1;fixedSize=1;rounded=0;glass=0;fontSize=8;fillColor=#60a917;fontColor=#ffffff;strokeColor=#2D7600;" vertex="1" parent="O3BbCS4CnLVl9yZ6NWeh-3">
          <mxGeometry x="20" y="45" width="120" height="50" as="geometry" />
        </mxCell>
        <mxCell id="-DtHuRD3jHM6YNQx53oj-34" style="edgeStyle=orthogonalEdgeStyle;rounded=0;orthogonalLoop=1;jettySize=auto;html=1;fontSize=9;startArrow=classic;startFill=1;" edge="1" parent="O3BbCS4CnLVl9yZ6NWeh-3" source="-DtHuRD3jHM6YNQx53oj-31" target="-DtHuRD3jHM6YNQx53oj-30">
          <mxGeometry relative="1" as="geometry" />
        </mxCell>
        <mxCell id="-DtHuRD3jHM6YNQx53oj-36" style="edgeStyle=orthogonalEdgeStyle;rounded=0;orthogonalLoop=1;jettySize=auto;html=1;exitX=1;exitY=0.5;exitDx=0;exitDy=0;entryX=0.16;entryY=0.55;entryDx=0;entryDy=0;entryPerimeter=0;fontSize=9;startArrow=classic;startFill=1;" edge="1" parent="O3BbCS4CnLVl9yZ6NWeh-3" source="-DtHuRD3jHM6YNQx53oj-31" target="-DtHuRD3jHM6YNQx53oj-32">
          <mxGeometry relative="1" as="geometry" />
        </mxCell>
        <mxCell id="-DtHuRD3jHM6YNQx53oj-31" value="调用场所、设备、人员绑定关系" style="rounded=0;whiteSpace=wrap;html=1;glass=0;fontSize=9;fillColor=#60a917;fontColor=#ffffff;strokeColor=#2D7600;" vertex="1" parent="O3BbCS4CnLVl9yZ6NWeh-3">
          <mxGeometry x="250" y="40" width="120" height="60" as="geometry" />
        </mxCell>
        <mxCell id="-DtHuRD3jHM6YNQx53oj-32" value="业务数据计算&lt;br&gt;与存储" style="ellipse;shape=cloud;whiteSpace=wrap;html=1;rounded=0;glass=0;fontSize=9;fillColor=#60a917;fontColor=#ffffff;strokeColor=#2D7600;" vertex="1" parent="O3BbCS4CnLVl9yZ6NWeh-3">
          <mxGeometry x="440" y="30" width="120" height="80" as="geometry" />
        </mxCell>
        <mxCell id="-DtHuRD3jHM6YNQx53oj-33" style="edgeStyle=orthogonalEdgeStyle;rounded=0;orthogonalLoop=1;jettySize=auto;html=1;fontSize=9;startArrow=classic;startFill=1;" edge="1" parent="O3BbCS4CnLVl9yZ6NWeh-1" source="-DtHuRD3jHM6YNQx53oj-23" target="-DtHuRD3jHM6YNQx53oj-31">
          <mxGeometry relative="1" as="geometry" />
        </mxCell>
        <mxCell id="O3BbCS4CnLVl9yZ6NWeh-4" value="本地设备" style="swimlane;startSize=20;horizontal=0;fillColor=#1ba1e2;fontColor=#ffffff;strokeColor=#006EAF;" vertex="1" parent="O3BbCS4CnLVl9yZ6NWeh-1">
          <mxGeometry y="440" width="580" height="260" as="geometry" />
        </mxCell>
        <mxCell id="-DtHuRD3jHM6YNQx53oj-6" value="终端采集设备（主控、传感器、网络）" style="whiteSpace=wrap;html=1;glass=0;fillColor=#1ba1e2;fontColor=#ffffff;strokeColor=#006EAF;rounded=0;container=1;" vertex="1" parent="O3BbCS4CnLVl9yZ6NWeh-4">
          <mxGeometry x="20" width="560" height="20" as="geometry" />
        </mxCell>
        <mxCell id="-DtHuRD3jHM6YNQx53oj-15" value="设备入网" style="rounded=1;whiteSpace=wrap;html=1;glass=0;fontSize=8;fillColor=#1ba1e2;fontColor=#ffffff;strokeColor=#006EAF;" vertex="1" parent="O3BbCS4CnLVl9yZ6NWeh-4">
          <mxGeometry x="450" y="80" width="60" height="20" as="geometry" />
        </mxCell>
        <mxCell id="-DtHuRD3jHM6YNQx53oj-19" value="设备配置" style="rounded=1;whiteSpace=wrap;html=1;glass=0;fontSize=8;fillColor=#1ba1e2;fontColor=#ffffff;strokeColor=#006EAF;" vertex="1" parent="O3BbCS4CnLVl9yZ6NWeh-4">
          <mxGeometry x="52.5" y="230" width="100" height="20" as="geometry" />
        </mxCell>
        <mxCell id="-DtHuRD3jHM6YNQx53oj-25" value="" style="edgeStyle=orthogonalEdgeStyle;rounded=0;orthogonalLoop=1;jettySize=auto;html=1;fontSize=8;" edge="1" parent="O3BbCS4CnLVl9yZ6NWeh-4" source="-DtHuRD3jHM6YNQx53oj-20" target="-DtHuRD3jHM6YNQx53oj-24">
          <mxGeometry relative="1" as="geometry" />
        </mxCell>
        <mxCell id="-DtHuRD3jHM6YNQx53oj-20" value="设备心跳上报" style="rounded=1;whiteSpace=wrap;html=1;glass=0;fontSize=8;fillColor=#1ba1e2;fontColor=#ffffff;strokeColor=#006EAF;" vertex="1" parent="O3BbCS4CnLVl9yZ6NWeh-4">
          <mxGeometry x="405" y="140" width="85" height="20" as="geometry" />
        </mxCell>
        <mxCell id="-DtHuRD3jHM6YNQx53oj-26" style="edgeStyle=orthogonalEdgeStyle;rounded=0;orthogonalLoop=1;jettySize=auto;html=1;exitX=0;exitY=0.75;exitDx=0;exitDy=0;entryX=1;entryY=0.5;entryDx=0;entryDy=0;fontSize=8;" edge="1" parent="O3BbCS4CnLVl9yZ6NWeh-4" source="-DtHuRD3jHM6YNQx53oj-21" target="-DtHuRD3jHM6YNQx53oj-24">
          <mxGeometry relative="1" as="geometry" />
        </mxCell>
        <mxCell id="-DtHuRD3jHM6YNQx53oj-21" value="传感器数据上报" style="rounded=1;whiteSpace=wrap;html=1;glass=0;fontSize=8;fillColor=#1ba1e2;fontColor=#ffffff;strokeColor=#006EAF;" vertex="1" parent="O3BbCS4CnLVl9yZ6NWeh-4">
          <mxGeometry x="405" y="180" width="110" height="20" as="geometry" />
        </mxCell>
        <mxCell id="-DtHuRD3jHM6YNQx53oj-27" style="edgeStyle=orthogonalEdgeStyle;rounded=0;orthogonalLoop=1;jettySize=auto;html=1;fontSize=8;startArrow=classic;startFill=1;" edge="1" parent="O3BbCS4CnLVl9yZ6NWeh-4" source="-DtHuRD3jHM6YNQx53oj-23" target="-DtHuRD3jHM6YNQx53oj-24">
          <mxGeometry relative="1" as="geometry">
            <Array as="points">
              <mxPoint x="170" y="130" />
              <mxPoint x="223" y="130" />
            </Array>
          </mxGeometry>
        </mxCell>
        <mxCell id="-DtHuRD3jHM6YNQx53oj-23" value="数据上下传输" style="rounded=1;whiteSpace=wrap;html=1;glass=0;fontSize=8;fillColor=#1ba1e2;fontColor=#ffffff;strokeColor=#006EAF;" vertex="1" parent="O3BbCS4CnLVl9yZ6NWeh-4">
          <mxGeometry x="130" y="40" width="85" height="25" as="geometry" />
        </mxCell>
        <mxCell id="-DtHuRD3jHM6YNQx53oj-24" value="数据上报" style="rounded=1;whiteSpace=wrap;html=1;glass=0;fontSize=8;fillColor=#1ba1e2;fontColor=#ffffff;strokeColor=#006EAF;" vertex="1" parent="O3BbCS4CnLVl9yZ6NWeh-4">
          <mxGeometry x="210" y="160" width="85" height="20" as="geometry" />
        </mxCell>
        <mxCell id="-DtHuRD3jHM6YNQx53oj-41" style="edgeStyle=orthogonalEdgeStyle;rounded=0;orthogonalLoop=1;jettySize=auto;html=1;entryX=0.459;entryY=1.024;entryDx=0;entryDy=0;entryPerimeter=0;fontSize=9;startArrow=classic;startFill=1;" edge="1" parent="O3BbCS4CnLVl9yZ6NWeh-4" source="-DtHuRD3jHM6YNQx53oj-28" target="-DtHuRD3jHM6YNQx53oj-23">
          <mxGeometry relative="1" as="geometry">
            <Array as="points">
              <mxPoint x="103" y="130" />
              <mxPoint x="170" y="130" />
              <mxPoint x="170" y="66" />
            </Array>
          </mxGeometry>
        </mxCell>
        <mxCell id="-DtHuRD3jHM6YNQx53oj-62" style="edgeStyle=orthogonalEdgeStyle;rounded=0;orthogonalLoop=1;jettySize=auto;html=1;fontSize=9;startArrow=oval;startFill=0;" edge="1" parent="O3BbCS4CnLVl9yZ6NWeh-4" source="-DtHuRD3jHM6YNQx53oj-28" target="-DtHuRD3jHM6YNQx53oj-19">
          <mxGeometry relative="1" as="geometry" />
        </mxCell>
        <mxCell id="-DtHuRD3jHM6YNQx53oj-28" value="命令下发" style="rounded=1;whiteSpace=wrap;html=1;glass=0;fontSize=8;fillColor=#1ba1e2;fontColor=#ffffff;strokeColor=#006EAF;" vertex="1" parent="O3BbCS4CnLVl9yZ6NWeh-4">
          <mxGeometry x="60" y="160" width="85" height="20" as="geometry" />
        </mxCell>
        <mxCell id="-DtHuRD3jHM6YNQx53oj-67" style="edgeStyle=orthogonalEdgeStyle;rounded=0;orthogonalLoop=1;jettySize=auto;html=1;fontSize=9;startArrow=oval;startFill=0;entryX=1;entryY=0.5;entryDx=0;entryDy=0;fillColor=#0050ef;strokeColor=#001DBC;" edge="1" parent="O3BbCS4CnLVl9yZ6NWeh-1" source="-DtHuRD3jHM6YNQx53oj-39" target="-DtHuRD3jHM6YNQx53oj-15">
          <mxGeometry relative="1" as="geometry">
            <mxPoint x="530" y="530" as="targetPoint" />
            <Array as="points">
              <mxPoint x="550" y="130" />
              <mxPoint x="550" y="530" />
            </Array>
          </mxGeometry>
        </mxCell>
        <mxCell id="-DtHuRD3jHM6YNQx53oj-68" style="edgeStyle=orthogonalEdgeStyle;rounded=0;orthogonalLoop=1;jettySize=auto;html=1;entryX=1;entryY=0.25;entryDx=0;entryDy=0;fontSize=9;startArrow=oval;startFill=0;fillColor=#0050ef;strokeColor=#001DBC;" edge="1" parent="O3BbCS4CnLVl9yZ6NWeh-1" source="-DtHuRD3jHM6YNQx53oj-32" target="-DtHuRD3jHM6YNQx53oj-38">
          <mxGeometry relative="1" as="geometry">
            <Array as="points">
              <mxPoint x="480" y="285" />
            </Array>
          </mxGeometry>
        </mxCell>
        <mxCell id="-DtHuRD3jHM6YNQx53oj-73" style="edgeStyle=orthogonalEdgeStyle;rounded=0;orthogonalLoop=1;jettySize=auto;html=1;fontSize=9;startArrow=oval;startFill=0;fillColor=#0050ef;strokeColor=#001DBC;" edge="1" parent="O3BbCS4CnLVl9yZ6NWeh-1" source="-DtHuRD3jHM6YNQx53oj-42" target="-DtHuRD3jHM6YNQx53oj-31">
          <mxGeometry relative="1" as="geometry" />
        </mxCell>
      </root>
    </mxGraphModel>
  </diagram>
</mxfile>
